# xmcd
#
# Track frame offsets:
#	150
#	10590
#	24607
#	34800
#	48439
#	60536
#	70441
#	82813
#	95951
#	106882
#	119298
#	134195
#	143208
#
# Disc length: 2115 seconds
#
# Revision: 1
# Processed by: cddbd v1.5.2PL0 Copyright (c) Steve Scherf et al.
# Submitted via: audiograbber 1.83.01
#
DISCID=b608410d
DTITLE=Williamson II,Sonny Boy - Nine below zero 1951-1962 [CD 4)
DYEAR=2017
DGENRE=Blues
TTITLE0=Let your conscience be your guide
TTITLE1=Unseeing eye
TTITLE2=Temperature 110
TTITLE3=Lonesome cabin
TTITLE4=Trust me baby
TTITLE5=Too close together
TTITLE6=The goat
TTITLE7=It's sad to be alone
TTITLE8=Stop right now
TTITLE9=The hunt
TTITLE10=Little village
TTITLE11=One way out
TTITLE12=Nine below zero
EXTD=
EXTT0=
EXTT1=
EXTT2=
EXTT3=
EXTT4=
EXTT5=
EXTT6=
EXTT7=
EXTT8=
EXTT9=
EXTT10=
EXTT11=
EXTT12=
PLAYORDER=
